<?xml version="1.0" standalone="no"?>
<!DOCTYPE svg PUBLIC "-//W3C//DTD SVG 20010904//EN"
 "http://www.w3.org/TR/2001/REC-SVG-20010904/DTD/svg10.dtd">
<svg version="1.0" xmlns="http://www.w3.org/2000/svg"
 width="3241.000000pt" height="3241.000000pt" viewBox="0 0 3241.000000 3241.000000"
 preserveAspectRatio="xMidYMid meet">
<metadata>
Created by potrace 1.14, written by Peter Selinger 2001-2017
</metadata>
<g transform="translate(0.000000,3241.000000) scale(0.100000,-0.100000)"
fill="#000000" stroke="none">
<path d="M10438 31295 c-2 -2 -34 -6 -73 -9 -196 -19 -522 -97 -670 -161 -16
-7 -55 -23 -85 -35 -78 -32 -230 -109 -335 -170 -49 -29 -106 -61 -125 -72
-19 -11 -64 -37 -100 -58 -36 -21 -83 -48 -105 -61 -120 -68 -212 -121 -225
-129 -15 -9 -91 -54 -158 -92 -33 -18 -109 -62 -487 -281 -104 -60 -206 -118
-225 -129 -19 -11 -60 -35 -91 -54 -31 -19 -60 -34 -63 -34 -4 0 -23 -12 -42
-26 -19 -15 -34 -23 -34 -19 0 5 -8 1 -17 -7 -10 -9 -65 -42 -123 -75 -58 -33
-179 -103 -270 -155 -91 -53 -284 -164 -430 -248 -146 -83 -269 -155 -275
-160 -5 -4 -35 -21 -65 -37 -30 -17 -201 -115 -380 -218 -179 -104 -338 -196
-355 -205 -16 -10 -86 -50 -155 -90 -69 -40 -138 -80 -155 -90 -50 -28 -288
-167 -325 -189 -19 -11 -42 -24 -50 -28 -8 -4 -37 -20 -65 -36 -105 -62 -312
-181 -355 -205 -25 -14 -57 -33 -72 -43 -14 -11 -28 -19 -31 -19 -3 0 -50 -26
-104 -58 -54 -32 -105 -61 -113 -65 -8 -4 -30 -16 -48 -27 -30 -18 -492 -286
-582 -338 -19 -11 -123 -70 -230 -132 -107 -62 -208 -120 -225 -130 -16 -9
-88 -51 -160 -92 -200 -116 -214 -125 -300 -173 -44 -25 -87 -50 -95 -55 -85
-52 -830 -480 -835 -480 -3 0 -11 -5 -18 -10 -7 -6 -133 -80 -280 -165 -299
-172 -342 -200 -472 -296 -192 -143 -361 -313 -523 -524 -117 -154 -252 -398
-329 -594 -48 -121 -105 -301 -96 -301 3 0 1 -6 -4 -12 -6 -7 -13 -29 -17 -48
-3 -19 -8 -46 -11 -60 -3 -14 -8 -38 -10 -55 -3 -16 -8 -37 -10 -45 -2 -8 -7
-40 -11 -70 -4 -30 -9 -71 -12 -90 -3 -19 -7 -2220 -8 -4890 -2 -4635 -1
-4861 16 -4985 23 -164 45 -278 71 -362 12 -36 22 -73 24 -82 4 -19 66 -190
90 -246 89 -210 262 -496 391 -645 166 -192 329 -343 504 -466 112 -79 117
-82 1095 -646 110 -64 216 -125 235 -137 19 -11 41 -24 49 -28 8 -3 64 -35
125 -71 61 -36 125 -72 141 -82 17 -9 149 -86 294 -170 146 -84 280 -161 298
-171 18 -11 48 -28 67 -38 18 -11 64 -38 101 -60 37 -23 69 -41 71 -41 2 0 49
-27 105 -60 55 -33 102 -60 104 -60 2 0 153 -87 270 -157 28 -16 57 -32 65
-36 8 -4 29 -15 45 -26 17 -10 46 -27 65 -38 19 -11 80 -46 135 -78 55 -32
174 -101 265 -153 236 -136 534 -308 610 -352 152 -89 507 -293 559 -322 31
-17 63 -37 72 -44 8 -8 18 -14 22 -14 5 0 421 -238 517 -297 25 -15 47 -27 50
-28 5 0 88 -48 228 -132 40 -24 74 -43 77 -43 2 0 39 -21 82 -46 69 -42 274
-161 365 -213 18 -10 137 -78 263 -152 127 -73 246 -142 267 -153 20 -12 90
-52 155 -90 65 -38 134 -78 153 -88 103 -59 562 -324 603 -349 27 -16 53 -29
58 -29 5 0 9 -4 9 -10 0 -5 4 -10 10 -10 8 0 99 -50 180 -99 213 -129 558
-319 671 -369 98 -45 326 -125 387 -137 9 -1 35 -8 57 -14 71 -18 261 -50 352
-58 162 -14 502 -8 598 11 11 2 42 7 69 10 27 4 52 9 55 10 7 4 95 18 125 20
15 1 25 -18 50 -94 159 -468 452 -888 839 -1199 108 -87 239 -174 415 -275 73
-43 151 -87 172 -99 121 -70 517 -300 530 -307 42 -26 293 -170 296 -170 2 0
44 -25 94 -55 50 -30 93 -55 96 -55 2 0 37 -20 77 -44 39 -24 92 -54 117 -68
54 -31 404 -233 478 -277 29 -17 55 -31 57 -31 2 0 50 -28 107 -61 56 -34 119
-71 138 -82 139 -78 847 -487 897 -518 34 -22 65 -39 67 -39 3 0 29 -14 58
-31 29 -18 152 -89 273 -159 121 -69 294 -169 385 -222 91 -52 311 -180 490
-283 179 -103 350 -202 380 -220 30 -18 75 -44 100 -57 86 -48 485 -280 523
-304 20 -13 37 -21 37 -18 0 4 8 0 18 -8 14 -13 103 -65 336 -198 17 -9 130
-75 251 -145 121 -70 342 -197 490 -282 149 -86 349 -202 445 -258 96 -56 195
-113 220 -127 80 -45 504 -290 535 -309 17 -11 37 -22 45 -26 8 -4 60 -34 115
-66 325 -192 573 -292 885 -358 52 -11 113 -22 135 -24 22 -3 51 -8 65 -10 42
-9 219 -19 335 -19 397 0 773 87 1130 260 76 37 205 106 245 132 29 19 569
330 650 374 30 17 60 34 65 39 6 4 53 32 105 62 98 56 231 132 525 302 94 54
184 106 200 115 17 10 134 77 260 151 127 73 329 190 450 259 121 70 270 156
331 192 61 35 117 68 125 71 8 4 30 17 49 28 19 12 141 82 270 157 129 74 279
161 333 194 55 32 100 58 102 58 1 0 51 28 111 63 60 35 116 66 124 70 8 4 29
16 45 26 17 11 46 28 65 39 19 11 103 59 185 107 83 48 175 101 205 118 30 17
83 48 118 69 34 21 64 38 67 38 3 0 29 16 59 35 30 19 58 35 61 35 3 0 22 11
43 23 20 13 57 35 82 49 25 14 117 67 205 118 88 51 174 101 190 110 17 9 102
59 190 110 88 51 169 98 180 104 11 6 82 47 158 91 76 44 155 89 175 101 20
11 141 80 267 153 127 74 244 141 260 151 17 9 134 77 260 150 187 108 432
249 640 370 17 9 208 119 425 245 446 256 488 282 619 378 168 123 335 284
486 468 138 167 300 449 388 675 60 154 124 384 142 514 3 25 9 59 11 75 3 17
9 64 14 105 9 85 7 9769 -2 9815 -4 17 -9 50 -13 75 -10 72 -15 104 -20 120
-2 8 -7 31 -10 50 -8 50 -63 253 -81 303 -92 244 -183 428 -297 599 -46 68
-88 131 -95 139 -6 8 -37 46 -69 84 -31 39 -104 117 -162 175 -235 234 -311
288 -836 590 -463 267 -517 298 -535 310 -8 6 -22 13 -30 17 -8 4 -73 41 -145
83 -71 42 -173 101 -225 131 -52 29 -104 59 -115 66 -11 7 -27 16 -35 20 -8 4
-118 67 -243 140 -126 73 -230 133 -233 133 -2 0 -33 17 -67 39 -34 21 -186
109 -337 196 -151 87 -374 216 -495 286 -121 70 -236 136 -255 146 -39 23
-239 138 -406 235 -61 36 -117 68 -125 71 -8 4 -27 16 -44 27 -16 11 -37 23
-45 27 -8 4 -69 38 -135 76 -66 39 -134 78 -152 88 -49 28 -77 44 -318 184
-121 70 -238 137 -260 150 -22 12 -65 37 -95 55 -30 18 -71 42 -90 52 -19 10
-48 27 -65 37 -16 10 -50 29 -75 43 -59 33 -151 86 -170 98 -19 11 -230 134
-290 168 -109 62 -456 263 -470 272 -8 6 -22 13 -30 17 -8 4 -31 16 -50 28
-19 12 -55 33 -80 47 -25 14 -117 67 -205 118 -88 51 -173 101 -190 110 -29
17 -239 138 -320 186 -22 13 -53 31 -70 40 -16 9 -248 143 -515 297 -267 154
-498 287 -515 297 -16 9 -106 61 -200 115 -226 131 -312 173 -480 238 -228 88
-479 144 -735 163 -68 5 -352 5 -400 -1 -19 -2 -60 -6 -91 -10 -31 -3 -67 -8
-80 -10 -13 -3 -39 -7 -59 -10 -19 -3 -64 -12 -100 -19 -36 -8 -68 -12 -71
-10 -4 2 -10 20 -14 40 -3 20 -12 50 -20 68 -7 17 -28 69 -46 116 -200 524
-633 1026 -1119 1297 -30 17 -107 61 -170 98 -63 37 -131 76 -150 87 -19 11
-64 37 -100 58 -36 21 -81 47 -100 58 -77 43 -608 351 -658 380 -29 18 -55 32
-58 32 -3 0 -28 15 -57 33 -29 18 -65 40 -82 49 -16 8 -113 64 -215 123 -102
59 -200 116 -218 126 -104 60 -187 108 -361 209 -107 62 -208 121 -225 131
-17 10 -42 24 -56 32 -34 18 -428 246 -465 268 -16 11 -36 22 -44 26 -7 3
-133 75 -278 160 -146 84 -269 153 -274 153 -5 0 -9 5 -9 10 0 6 -5 10 -10 10
-6 0 -121 65 -258 144 -136 79 -260 151 -277 160 -16 9 -37 21 -45 26 -16 10
-157 92 -222 129 -21 11 -53 29 -70 40 -51 29 -332 192 -543 314 -104 61 -217
125 -250 144 -33 18 -67 37 -75 43 -8 5 -42 25 -75 43 -33 19 -116 67 -185
107 -69 40 -141 82 -160 93 -19 10 -150 86 -290 167 -140 81 -271 156 -290
167 -42 24 -254 146 -406 235 -61 36 -117 68 -125 71 -8 4 -30 17 -49 28 -39
23 -276 161 -327 191 -48 26 -74 42 -328 188 -126 73 -243 141 -260 150 -16 9
-64 37 -105 62 -41 24 -82 47 -90 51 -8 4 -42 23 -75 43 -77 45 -250 128 -340
164 -70 28 -253 87 -290 94 -11 2 -38 9 -60 14 -65 18 -181 39 -260 48 -27 3
-61 8 -75 11 -26 5 -456 13 -462 8z"/>
</g>
</svg>
